<?xml version="1.0" encoding="UTF-8" standalone="no"?>
<svg
   xmlns:dc="http://purl.org/dc/elements/1.1/"
   xmlns:cc="http://creativecommons.org/ns#"
   xmlns:rdf="http://www.w3.org/1999/02/22-rdf-syntax-ns#"
   xmlns:svg="http://www.w3.org/2000/svg"
   xmlns="http://www.w3.org/2000/svg"
   xmlns:sodipodi="http://sodipodi.sourceforge.net/DTD/sodipodi-0.dtd"
   xmlns:inkscape="http://www.inkscape.org/namespaces/inkscape"
   height="1792"
   viewBox="0 0 1792 1792"
   width="1792"
   version="1.1"
   id="svg74"
   sodipodi:docname="search.svg"
   inkscape:version="1.0.1 (0767f8302a, 2020-10-17)">
  <metadata
     id="metadata80">
    <rdf:RDF>
      <cc:Work
         rdf:about="">
        <dc:format>image/svg+xml</dc:format>
        <dc:type
           rdf:resource="http://purl.org/dc/dcmitype/StillImage" />
      </cc:Work>
    </rdf:RDF>
  </metadata>
  <defs
     id="defs78" />
  <sodipodi:namedview
     pagecolor="#ffffff"
     bordercolor="#666666"
     borderopacity="1"
     objecttolerance="10"
     gridtolerance="10"
     guidetolerance="10"
     inkscape:pageopacity="0"
     inkscape:pageshadow="2"
     inkscape:window-width="1920"
     inkscape:window-height="960"
     id="namedview76"
     showgrid="false"
     inkscape:zoom="0.42912946"
     inkscape:cx="896"
     inkscape:cy="896"
     inkscape:window-x="1920"
     inkscape:window-y="27"
     inkscape:window-maximized="1"
     inkscape:current-layer="svg74" />
  <path
     d="m 1189.7524,796.48895 q 0,-153.84439 -109.3542,-263.19864 -109.35421,-109.35425 -263.19859,-109.35425 -153.84439,0 -263.19864,109.35425 -109.35425,109.35425 -109.35425,263.19864 0,153.84442 109.35425,263.19865 109.35425,109.3543 263.19864,109.3543 153.84438,0 263.19859,-109.3543 109.3542,-109.35423 109.3542,-263.19865 z m 425.7748,691.88395 q 0,43.2428 -31.6005,74.8432 -31.6005,31.6005 -74.8432,31.6005 -44.9059,0 -74.8432,-31.6005 l -285.2358,-284.4042 q -148.8548,103.1173 -331.80489,103.1173 -118.91756,0 -227.44022,-46.1533 -108.52266,-46.1533 -187.10803,-124.7387 -78.58538,-78.5853 -124.73869,-187.108 -46.15332,-108.52273 -46.15332,-227.44025 0,-118.91756 46.15332,-227.44022 46.15331,-108.52266 124.73869,-187.10803 78.58537,-78.58538 187.10803,-124.73869 108.52266,-46.15332 227.44022,-46.15332 118.91755,0 227.44019,46.15332 108.5227,46.15331 187.108,124.73869 78.5854,78.58537 124.7387,187.10803 46.1533,108.52266 46.1533,227.44022 0,182.95012 -103.1173,331.80495 l 285.2358,285.2358 q 30.7689,30.7689 30.7689,74.8432 z"
     id="path72"
     style="fill:#ffffff;stroke-width:0.831591" />
</svg>
