<?xml version="1.0" standalone="no"?>
<!DOCTYPE svg PUBLIC "-//W3C//DTD SVG 20010904//EN"
 "http://www.w3.org/TR/2001/REC-SVG-20010904/DTD/svg10.dtd">
<svg version="1.0" xmlns="http://www.w3.org/2000/svg"
 width="700.000000pt" height="700.000000pt" viewBox="0 0 700.000000 700.000000"
 preserveAspectRatio="xMidYMid meet">
<metadata>
Created by potrace 1.11, written by Peter Selinger 2001-2013
</metadata>
<g transform="translate(0.000000,700.000000) scale(0.100000,-0.100000)"
fill="#000000" stroke="none">
<path d="M3387 6754 c-1 -1 -51 -4 -112 -8 -60 -3 -126 -9 -145 -11 -72 -10
-116 -16 -155 -21 -173 -23 -495 -113 -713 -200 -928 -373 -1651 -1176 -1927
-2140 -38 -136 -79 -318 -90 -406 -4 -28 -8 -59 -10 -69 -2 -10 -6 -46 -10
-81 -3 -35 -8 -85 -11 -113 -11 -111 -5 -454 10 -585 23 -190 24 -194 47 -305
69 -340 185 -653 357 -965 33 -62 199 -319 211 -330 3 -3 26 -32 51 -65 159
-211 425 -472 641 -628 13 -9 52 -37 85 -61 167 -120 608 -356 667 -356 7 0
17 -4 23 -9 13 -12 306 -107 390 -126 102 -23 260 -54 304 -61 30 -4 62 -8 70
-9 8 -2 51 -6 95 -9 44 -4 94 -9 110 -12 36 -5 397 -5 440 0 17 2 62 7 100 10
120 11 290 38 395 61 14 3 34 8 45 10 56 12 280 80 355 107 822 298 1488 902
1865 1691 114 238 198 488 248 737 29 140 30 149 52 320 22 168 22 581 1 695
-3 18 -19 146 -20 170 -1 7 -180 10 -515 11 l-513 0 5 -35 c3 -20 13 -76 21
-126 42 -235 41 -506 0 -744 -76 -435 -264 -822 -560 -1149 -349 -386 -797
-630 -1329 -723 -109 -19 -167 -23 -355 -23 -199 -1 -311 5 -383 20 -12 2 -38
7 -57 10 -57 8 -259 63 -335 90 -608 217 -1095 674 -1339 1257 -73 173 -128
363 -151 521 -3 21 -7 41 -9 45 -9 15 -20 209 -20 346 1 211 20 361 70 560 22
84 84 268 95 280 5 5 9 15 9 22 0 12 79 176 121 253 109 198 331 464 514 616
366 305 813 488 1295 530 113 10 367 4 459 -10 20 -4 52 -8 71 -10 167 -20
401 -91 605 -184 103 -46 251 -127 260 -142 3 -5 -137 -150 -310 -323 -173
-173 -315 -316 -315 -319 0 -2 454 -4 1009 -4 l1008 0 0 1003 0 1004 -20 -18
c-11 -10 -157 -154 -324 -320 -168 -167 -307 -303 -309 -303 -3 0 -51 31 -107
69 -113 77 -176 115 -287 174 -112 60 -115 62 -251 120 -270 118 -608 211
-874 242 -27 3 -59 8 -70 10 -53 11 -467 27 -478 19z"/>
</g>
</svg>
